<?xml version="1.0" encoding="UTF-8" standalone="no"?>
<!-- Created with Inkscape (http://www.inkscape.org/) -->

<svg
   width="25.401274mm"
   height="25.4mm"
   viewBox="0 0 25.401274 25.4"
   version="1.1"
   id="svg12901"
   sodipodi:docname="sxxs.svg"
   inkscape:version="1.2.1 (9c6d41e4, 2022-07-14)"
   xmlns:inkscape="http://www.inkscape.org/namespaces/inkscape"
   xmlns:sodipodi="http://sodipodi.sourceforge.net/DTD/sodipodi-0.dtd"
   xmlns="http://www.w3.org/2000/svg"
   xmlns:svg="http://www.w3.org/2000/svg">
  <sodipodi:namedview
     id="namedview12903"
     pagecolor="#ffffff"
     bordercolor="#000000"
     borderopacity="0.25"
     inkscape:showpageshadow="2"
     inkscape:pageopacity="0.0"
     inkscape:pagecheckerboard="0"
     inkscape:deskcolor="#d1d1d1"
     inkscape:document-units="mm"
     showgrid="false"
     inkscape:zoom="0.91045349"
     inkscape:cx="-183.97425"
     inkscape:cy="6.5901225"
     inkscape:window-width="1309"
     inkscape:window-height="456"
     inkscape:window-x="0"
     inkscape:window-y="25"
     inkscape:window-maximized="0"
     inkscape:current-layer="layer1" />
  <defs
     id="defs12898" />
  <g
     inkscape:label="Layer 1"
     inkscape:groupmode="layer"
     id="layer1"
     transform="translate(-270.45615,-202.49915)">
    <g
       fill="#999999"
       stroke="none"
       id="g2316"
       transform="matrix(25.399999,0,0,-25.399999,137.10614,234.77832)"
       style="fill:#030504;fill-opacity:1">
      <g
         transform="translate(5.75,1.125)"
         id="g2314"
         style="fill:#030504;fill-opacity:1">
        <path
           class="fill"
           d="M 0,0.0625 C 0.0345178,0.0625 0.0625,0.0345178 0.0625,0 0.0625,-0.0345178 0.0345178,-0.0625 0,-0.0625 c -0.0345178,0 -0.0625,0.0279822 -0.0625,0.0625 0,0.0345178 0.0279822,0.0625 0.0625,0.0625"
           id="path2312"
           style="fill:#030504;fill-opacity:1" />
      </g>
    </g>
    <g
       fill="#999999"
       stroke="none"
       id="g2322"
       transform="matrix(25.399999,0,0,-25.399999,137.10614,234.24915)"
       style="fill:#030504;fill-opacity:1">
      <g
         transform="translate(5.75,0.75)"
         id="g2320"
         style="fill:#030504;fill-opacity:1">
        <path
           class="fill"
           d="m 0,0.125 c 0,0 -0.125,-0.25 -0.125,-0.25 0,0 0.25,0 0.25,0 0,0 -0.125,0.25 -0.125,0.25"
           id="path2318"
           style="fill:#030504;fill-opacity:1" />
      </g>
    </g>
    <g
       fill="#999999"
       stroke="none"
       id="g2334"
       transform="matrix(25.399999,0,0,-25.399999,105.88532,234.24915)"
       style="fill:#030504;fill-opacity:1">
      <g
         transform="rotate(90,2.9375,3.6875)"
         id="g2332"
         style="fill:#030504;fill-opacity:1">
        <path
           class="fill"
           d="M 0,0.0625 C 0.0345178,0.0625 0.0625,0.0345178 0.0625,0 0.0625,-0.0345178 0.0345178,-0.0625 0,-0.0625 c -0.0345178,0 -0.0625,0.0279822 -0.0625,0.0625 0,0.0345178 0.0279822,0.0625 0.0625,0.0625"
           id="path2330"
           style="fill:#030504;fill-opacity:1" />
      </g>
    </g>
  </g>
</svg>
