<?xml version="1.0" encoding="UTF-8" standalone="no"?>
<!-- Created with Inkscape (http://www.inkscape.org/) -->

<svg
   width="25.401274mm"
   height="25.4mm"
   viewBox="0 0 25.401274 25.4"
   version="1.1"
   id="svg8304"
   inkscape:version="1.2.1 (9c6d41e4, 2022-07-14)"
   sodipodi:docname="xdxx.svg"
   xmlns:inkscape="http://www.inkscape.org/namespaces/inkscape"
   xmlns:sodipodi="http://sodipodi.sourceforge.net/DTD/sodipodi-0.dtd"
   xmlns="http://www.w3.org/2000/svg"
   xmlns:svg="http://www.w3.org/2000/svg">
  <sodipodi:namedview
     id="namedview8306"
     pagecolor="#ffffff"
     bordercolor="#000000"
     borderopacity="0.25"
     inkscape:showpageshadow="2"
     inkscape:pageopacity="0.0"
     inkscape:pagecheckerboard="0"
     inkscape:deskcolor="#d1d1d1"
     inkscape:document-units="mm"
     showgrid="false"
     inkscape:zoom="0.67735233"
     inkscape:cx="-413.37423"
     inkscape:cy="41.337423"
     inkscape:window-width="1309"
     inkscape:window-height="456"
     inkscape:window-x="0"
     inkscape:window-y="25"
     inkscape:window-maximized="0"
     inkscape:current-layer="layer1" />
  <defs
     id="defs8301" />
  <g
     inkscape:label="Layer 1"
     inkscape:groupmode="layer"
     id="layer1"
     transform="translate(-363.58327,-281.78305)">
    <g
       fill="#999999"
       stroke="none"
       id="g2298"
       transform="matrix(25.399999,0,0,-25.399999,261.98326,313.53305)"
       style="fill:#000000;fill-opacity:1">
      <g
         transform="translate(4.5,0.75)"
         id="g2296"
         style="fill:#000000;fill-opacity:1">
        <path
           class="fill"
           d="m 0,0.125 c 0,0 -0.125,-0.25 -0.125,-0.25 0,0 0.25,0 0.25,0 0,0 -0.125,0.25 -0.125,0.25"
           id="path2294"
           style="fill:#000000;fill-opacity:1" />
      </g>
    </g>
    <g
       fill="#999999"
       stroke="none"
       id="g2304"
       transform="matrix(26.458333,0,0,-26.458333,256.36086,313.99607)"
       style="fill:#000000;fill-opacity:1">
      <g
         transform="rotate(-90,2.875,-2)"
         id="g2302"
         style="fill:#000000;fill-opacity:1">
        <path
           class="fill"
           d="M 0,0.0625 C 0.0345178,0.0625 0.0625,0.0345178 0.0625,0 0.0625,-0.0345178 0.0345178,-0.0625 0,-0.0625 c -0.0345178,0 -0.0625,0.0279822 -0.0625,0.0625 0,0.0345178 0.0279822,0.0625 0.0625,0.0625"
           id="path2300"
           style="fill:#000000;fill-opacity:1" />
      </g>
    </g>
    <g
       fill="#999999"
       stroke="none"
       id="g2310"
       transform="matrix(25.399999,0,0,-25.399999,261.45409,314.06222)"
       style="fill:#000000;fill-opacity:1">
      <g
         transform="rotate(-90,2.75,-2.125)"
         id="g2308"
         style="fill:#000000;fill-opacity:1">
        <path
           class="fill"
           d="M 0,0.0625 C 0.0345178,0.0625 0.0625,0.0345178 0.0625,0 0.0625,-0.0345178 0.0345178,-0.0625 0,-0.0625 c -0.0345178,0 -0.0625,0.0279822 -0.0625,0.0625 0,0.0345178 0.0279822,0.0625 0.0625,0.0625"
           id="path2306"
           style="fill:#000000;fill-opacity:1" />
      </g>
    </g>
  </g>
</svg>
