<?xml version="1.0" encoding="UTF-8" standalone="no"?>
<!-- Created with Inkscape (http://www.inkscape.org/) -->

<svg
   width="25.399994mm"
   height="25.39872mm"
   viewBox="0 0 25.399994 25.39872"
   version="1.1"
   id="svg15882"
   inkscape:version="1.2.1 (9c6d41e4, 2022-07-14)"
   sodipodi:docname="xssx.svg"
   xmlns:inkscape="http://www.inkscape.org/namespaces/inkscape"
   xmlns:sodipodi="http://sodipodi.sourceforge.net/DTD/sodipodi-0.dtd"
   xmlns="http://www.w3.org/2000/svg"
   xmlns:svg="http://www.w3.org/2000/svg">
  <sodipodi:namedview
     id="namedview15884"
     pagecolor="#ffffff"
     bordercolor="#000000"
     borderopacity="0.25"
     inkscape:showpageshadow="2"
     inkscape:pageopacity="0.0"
     inkscape:pagecheckerboard="0"
     inkscape:deskcolor="#d1d1d1"
     inkscape:document-units="mm"
     showgrid="false"
     inkscape:zoom="0.2102413"
     inkscape:cx="49.942613"
     inkscape:cy="47.564393"
     inkscape:window-width="1309"
     inkscape:window-height="456"
     inkscape:window-x="0"
     inkscape:window-y="25"
     inkscape:window-maximized="0"
     inkscape:current-layer="layer1" />
  <defs
     id="defs15879" />
  <g
     inkscape:label="Layer 1"
     inkscape:groupmode="layer"
     id="layer1"
     transform="translate(-92.382629,-135.80065)">
    <g
       fill="#999999"
       stroke="none"
       id="g2370"
       transform="matrix(25.399999,0,0,-25.399999,-136.74653,167.55064)"
       >
      <g
         transform="rotate(-90,5.3125,-4.5625)"
         id="g2368"
         >
        <path
           class="fill"
           d="M 0,0.0625 C 0.0345178,0.0625 0.0625,0.0345178 0.0625,0 0.0625,-0.0345178 0.0345178,-0.0625 0,-0.0625 c -0.0345178,0 -0.0625,0.0279822 -0.0625,0.0625 0,0.0345178 0.0279822,0.0625 0.0625,0.0625"
           id="path2366"
            />
      </g>
    </g>
    <g
       fill="#999999"
       stroke="none"
       id="g2376"
       transform="matrix(25.399999,0,0,-25.399999,-136.21737,167.55064)"
       >
      <g
         transform="translate(9.5,0.75)"
         id="g2374"
         >
        <path
           class="fill"
           d="m 0,0.125 c 0,0 -0.125,-0.25 -0.125,-0.25 0,0 0.25,0 0.25,0 0,0 -0.125,0.25 -0.125,0.25"
           id="path2372"
            />
      </g>
    </g>
    <g
       fill="#999999"
       stroke="none"
       id="g2382"
       transform="matrix(25.399999,0,0,-25.399999,-136.21737,167.02147)"
       >
      <g
         transform="rotate(-90,4.9375,-4.5625)"
         id="g2380"
         >
        <path
           class="fill"
           d="M 0,0.0625 C 0.0345178,0.0625 0.0625,0.0345178 0.0625,0 0.0625,-0.0345178 0.0345178,-0.0625 0,-0.0625 c -0.0345178,0 -0.0625,0.0279822 -0.0625,0.0625 0,0.0345178 0.0279822,0.0625 0.0625,0.0625"
           id="path2378"
            />
      </g>
    </g>
  </g>
</svg>
