<?xml version="1.0" encoding="UTF-8" standalone="no"?>

<svg
   width="25.401274mm"
   height="25.4mm"
   viewBox="0 0 25.401274 25.4"
   version="1.1"
   id="svg1103"
   xmlns="http://www.w3.org/2000/svg">
  <defs
     id="defs1100" />
  <g
     id="layer1"
     transform="translate(332.35317,-225.1517)">
    <g
       stroke="none"
       id="g2244"
       transform="matrix(25.399999,0,0,-25.399999,-338.70318,256.9017)"
       >
      <g
         transform="translate(0.75,0.75)"
         id="g2242"
         >
        <path
           class="fill"
           d="m 0,0.125 c 0,0 -0.125,-0.25 -0.125,-0.25 0,0 0.25,0 0.25,0 0,0 -0.125,0.25 -0.125,0.25"
           id="path2240"
            />
      </g>
    </g>
    <g
       stroke="none"
       id="g2250"
       transform="matrix(25.399999,0,0,-25.399999,-339.23235,257.43087)"
       >
      <g
         transform="translate(0.625,1.125)"
         id="g2248"
         >
        <path
           class="fill"
           d="M 0,0.0625 C 0.0345178,0.0625 0.0625,0.0345178 0.0625,0 0.0625,-0.0345178 0.0345178,-0.0625 0,-0.0625 c -0.0345178,0 -0.0625,0.0279822 -0.0625,0.0625 0,0.0345178 0.0279822,0.0625 0.0625,0.0625"
           id="path2246"
            />
      </g>
    </g>
    <g
       stroke="none"
       id="g2256"
       transform="matrix(25.399999,0,0,-25.399999,-338.17401,257.43087)"
       >
      <g
         transform="translate(0.875,1.125)"
         id="g2254"
         >
        <path
           class="fill"
           d="M 0,0.0625 C 0.0345178,0.0625 0.0625,0.0345178 0.0625,0 0.0625,-0.0345178 0.0345178,-0.0625 0,-0.0625 c -0.0345178,0 -0.0625,0.0279822 -0.0625,0.0625 0,0.0345178 0.0279822,0.0625 0.0625,0.0625"
           id="path2252"
            />
      </g>
    </g>
  </g>
</svg>
