<?xml version="1.0" encoding="UTF-8" standalone="no"?>

<svg
   width="25.399994mm"
   height="25.4mm"
   viewBox="0 0 25.399994 25.4"
   version="1.1"
   id="svg12901"
   xmlns="http://www.w3.org/2000/svg">
  <defs
     id="defs12898" />
  <g
     id="layer1"
     transform="translate(-213.00282,-198.80793)">
    <g
       stroke="none"
       id="g2328"
       transform="matrix(25.399999,0,0,-25.399999,70.127821,221.56211)"
       >
      <g
         transform="translate(6.125,0.75)"
         id="g2326"
         >
        <path
           class="fill"
           d="M 0,0.0625 C 0.0345178,0.0625 0.0625,0.0345178 0.0625,0 0.0625,-0.0345178 0.0345178,-0.0625 0,-0.0625 c -0.0345178,0 -0.0625,0.0279822 -0.0625,0.0625 0,0.0345178 0.0279822,0.0625 0.0625,0.0625"
           id="path2324"
            />
      </g>
    </g>
    <g
       stroke="none"
       id="g2340"
       transform="matrix(25.399999,0,0,-25.399999,47.902821,230.55794)"
       >
      <g
         transform="translate(7,0.75)"
         id="g2338"
         >
        <path
           class="fill"
           d="m 0,0.125 c 0,0 -0.125,-0.25 -0.125,-0.25 0,0 0.25,0 0.25,0 0,0 -0.125,0.25 -0.125,0.25"
           id="path2336"
            />
      </g>
    </g>
    <g
       stroke="none"
       id="g2346"
       transform="matrix(25.399999,0,0,-25.399999,56.766368,240.08294)"
       >
      <g
         transform="rotate(90,2.9375,4.0625)"
         id="g2344"
         >
        <path
           class="fill"
           d="M 0,0.0625 C 0.0345178,0.0625 0.0625,0.0345178 0.0625,0 0.0625,-0.0345178 0.0345178,-0.0625 0,-0.0625 c -0.0345178,0 -0.0625,0.0279822 -0.0625,0.0625 0,0.0345178 0.0279822,0.0625 0.0625,0.0625"
           id="path2342"
            />
      </g>
    </g>
  </g>
</svg>
