<?xml version="1.0" encoding="UTF-8" standalone="no"?>

<svg
   width="25.401274mm"
   height="25.4mm"
   viewBox="0 0 25.401274 25.4"
   version="1.1"
   id="svg12901"
   xmlns="http://www.w3.org/2000/svg">
  <defs
     id="defs12898" />
  <g
     id="layer1"
     transform="translate(-270.45615,-202.49915)">
    <g
       stroke="none"
       id="g2316"
       transform="matrix(25.399999,0,0,-25.399999,137.10614,234.77832)"
       >
      <g
         transform="translate(5.75,1.125)"
         id="g2314"
         >
        <path
           class="fill"
           d="M 0,0.0625 C 0.0345178,0.0625 0.0625,0.0345178 0.0625,0 0.0625,-0.0345178 0.0345178,-0.0625 0,-0.0625 c -0.0345178,0 -0.0625,0.0279822 -0.0625,0.0625 0,0.0345178 0.0279822,0.0625 0.0625,0.0625"
           id="path2312"
            />
      </g>
    </g>
    <g
       stroke="none"
       id="g2322"
       transform="matrix(25.399999,0,0,-25.399999,137.10614,234.24915)"
       >
      <g
         transform="translate(5.75,0.75)"
         id="g2320"
         >
        <path
           class="fill"
           d="m 0,0.125 c 0,0 -0.125,-0.25 -0.125,-0.25 0,0 0.25,0 0.25,0 0,0 -0.125,0.25 -0.125,0.25"
           id="path2318"
            />
      </g>
    </g>
    <g
       stroke="none"
       id="g2334"
       transform="matrix(25.399999,0,0,-25.399999,105.88532,234.24915)"
       >
      <g
         transform="rotate(90,2.9375,3.6875)"
         id="g2332"
         >
        <path
           class="fill"
           d="M 0,0.0625 C 0.0345178,0.0625 0.0625,0.0345178 0.0625,0 0.0625,-0.0345178 0.0345178,-0.0625 0,-0.0625 c -0.0345178,0 -0.0625,0.0279822 -0.0625,0.0625 0,0.0345178 0.0279822,0.0625 0.0625,0.0625"
           id="path2330"
            />
      </g>
    </g>
  </g>
</svg>
