<?xml version="1.0" encoding="UTF-8" standalone="no"?>

<svg
   width="25.401274mm"
   height="25.4mm"
   viewBox="0 0 25.401274 25.4"
   version="1.1"
   id="svg8304"
   xmlns="http://www.w3.org/2000/svg">
  <defs
     id="defs8301" />
  <g
     id="layer1"
     transform="translate(-363.58327,-281.78305)">
    <g
       stroke="none"
       id="g2298"
       transform="matrix(25.399999,0,0,-25.399999,261.98326,313.53305)"
       >
      <g
         transform="translate(4.5,0.75)"
         id="g2296"
         >
        <path
           class="fill"
           d="m 0,0.125 c 0,0 -0.125,-0.25 -0.125,-0.25 0,0 0.25,0 0.25,0 0,0 -0.125,0.25 -0.125,0.25"
           id="path2294"
            />
      </g>
    </g>
    <g
       stroke="none"
       id="g2304"
       transform="matrix(26.458333,0,0,-26.458333,256.36086,313.99607)"
       >
      <g
         transform="rotate(-90,2.875,-2)"
         id="g2302"
         >
        <path
           class="fill"
           d="M 0,0.0625 C 0.0345178,0.0625 0.0625,0.0345178 0.0625,0 0.0625,-0.0345178 0.0345178,-0.0625 0,-0.0625 c -0.0345178,0 -0.0625,0.0279822 -0.0625,0.0625 0,0.0345178 0.0279822,0.0625 0.0625,0.0625"
           id="path2300"
            />
      </g>
    </g>
    <g
       stroke="none"
       id="g2310"
       transform="matrix(25.399999,0,0,-25.399999,261.45409,314.06222)"
       >
      <g
         transform="rotate(-90,2.75,-2.125)"
         id="g2308"
         >
        <path
           class="fill"
           d="M 0,0.0625 C 0.0345178,0.0625 0.0625,0.0345178 0.0625,0 0.0625,-0.0345178 0.0345178,-0.0625 0,-0.0625 c -0.0345178,0 -0.0625,0.0279822 -0.0625,0.0625 0,0.0345178 0.0279822,0.0625 0.0625,0.0625"
           id="path2306"
            />
      </g>
    </g>
  </g>
</svg>
