<?xml version="1.0" encoding="UTF-8" standalone="no"?>

<svg
   width="25.399994mm"
   height="25.39872mm"
   viewBox="0 0 25.399994 25.39872"
   version="1.1"
   id="svg15882"
   xmlns="http://www.w3.org/2000/svg">
  <defs
     id="defs15879" />
  <g
     id="layer1"
     transform="translate(-92.382629,-135.80065)">
    <g
       stroke="none"
       id="g2370"
       transform="matrix(25.399999,0,0,-25.399999,-136.74653,167.55064)"
       >
      <g
         transform="rotate(-90,5.3125,-4.5625)"
         id="g2368"
         >
        <path
           class="fill"
           d="M 0,0.0625 C 0.0345178,0.0625 0.0625,0.0345178 0.0625,0 0.0625,-0.0345178 0.0345178,-0.0625 0,-0.0625 c -0.0345178,0 -0.0625,0.0279822 -0.0625,0.0625 0,0.0345178 0.0279822,0.0625 0.0625,0.0625"
           id="path2366"
            />
      </g>
    </g>
    <g
       stroke="none"
       id="g2376"
       transform="matrix(25.399999,0,0,-25.399999,-136.21737,167.55064)"
       >
      <g
         transform="translate(9.5,0.75)"
         id="g2374"
         >
        <path
           class="fill"
           d="m 0,0.125 c 0,0 -0.125,-0.25 -0.125,-0.25 0,0 0.25,0 0.25,0 0,0 -0.125,0.25 -0.125,0.25"
           id="path2372"
            />
      </g>
    </g>
    <g
       stroke="none"
       id="g2382"
       transform="matrix(25.399999,0,0,-25.399999,-136.21737,167.02147)"
       >
      <g
         transform="rotate(-90,4.9375,-4.5625)"
         id="g2380"
         >
        <path
           class="fill"
           d="M 0,0.0625 C 0.0345178,0.0625 0.0625,0.0345178 0.0625,0 0.0625,-0.0345178 0.0345178,-0.0625 0,-0.0625 c -0.0345178,0 -0.0625,0.0279822 -0.0625,0.0625 0,0.0345178 0.0279822,0.0625 0.0625,0.0625"
           id="path2378"
            />
      </g>
    </g>
  </g>
</svg>
