<?xml version="1.0" encoding="UTF-8" standalone="no"?>

<svg
   width="25.401274mm"
   height="25.4mm"
   viewBox="0 0 25.401274 25.4"
   version="1.1"
   id="svg9628"
   xmlns="http://www.w3.org/2000/svg">
     id="namedview9630"
     pagecolor="#ffffff"
     bordercolor="#000000"
     borderopacity="0.25"
     showgrid="false"
  <defs
     id="defs9625" />
  <g
     id="layer1"
     transform="translate(-92.38199,-135.8)">
    <g
       stroke="none"
       id="g2280"
       transform="matrix(25.399999,0,0,-25.399999,22.53199,167.55)"
       >
      <g
         transform="translate(3.25,0.75)"
         id="g2278"
         >
        <path
           class="fill"
           d="m 0,0.125 c 0,0 -0.125,-0.25 -0.125,-0.25 0,0 0.25,0 0.25,0 0,0 -0.125,0.25 -0.125,0.25"
           id="path2276"
            />
      </g>
    </g>
    <g
       stroke="none"
       id="g2286"
       transform="matrix(25.399999,0,0,-25.399999,23.061157,167.02083)"
       >
      <g
         transform="rotate(180,1.6875,0.1875)"
         id="g2284"
         >
        <path
           class="fill"
           d="M 0,0.0625 C 0.0345178,0.0625 0.0625,0.0345178 0.0625,0 0.0625,-0.0345178 0.0345178,-0.0625 0,-0.0625 c -0.0345178,0 -0.0625,0.0279822 -0.0625,0.0625 0,0.0345178 0.0279822,0.0625 0.0625,0.0625"
           id="path2282"
            />
      </g>
    </g>
    <g
       stroke="none"
       id="g2292"
       transform="matrix(25.399999,0,0,-25.399999,31.772593,167.22621)"
       >
      <g
         transform="rotate(180,1.3701817,0.19154279)"
         id="g2290"
         >
        <path
           class="fill"
           d="M 0,0.0625 C 0.0345178,0.0625 0.0625,0.0345178 0.0625,0 0.0625,-0.0345178 0.0345178,-0.0625 0,-0.0625 c -0.0345178,0 -0.0625,0.0279822 -0.0625,0.0625 0,0.0345178 0.0279822,0.0625 0.0625,0.0625"
           id="path2288"
            />
      </g>
    </g>
  </g>
</svg>
