<?xml version="1.0" encoding="UTF-8" standalone="no"?>

<svg
   width="25.401274mm"
   height="25.4mm"
   viewBox="0 0 25.401274 25.4"
   version="1.1"
   id="svg14694"
   xmlns="http://www.w3.org/2000/svg">
     id="namedview14696"
     pagecolor="#ffffff"
     bordercolor="#000000"
     borderopacity="0.25"
     showgrid="false"
  <defs
     id="defs14691" />
  <g
     id="layer1"
     transform="translate(-92.381995,-135.8)">
    <g
       stroke="none"
       id="g2352"
       transform="matrix(25.399999,0,0,-25.399999,-104.46801,167.02083)"
       >
      <g
         transform="rotate(180,4.125,0.1875)"
         id="g2350"
         >
        <path
           class="fill"
           d="M 0,0.0625 C 0.0345178,0.0625 0.0625,0.0345178 0.0625,0 0.0625,-0.0345178 0.0345178,-0.0625 0,-0.0625 c -0.0345178,0 -0.0625,0.0279822 -0.0625,0.0625 0,0.0345178 0.0279822,0.0625 0.0625,0.0625"
           id="path2348"
            />
      </g>
    </g>
    <g
       stroke="none"
       id="g2358"
       transform="matrix(25.399999,0,0,-25.399999,-104.46801,167.55)"
       >
      <g
         transform="translate(8.25,0.75)"
         id="g2356"
         >
        <path
           class="fill"
           d="m 0,0.125 c 0,0 -0.125,-0.25 -0.125,-0.25 0,0 0.25,0 0.25,0 0,0 -0.125,0.25 -0.125,0.25"
           id="path2354"
            />
      </g>
    </g>
    <g
       stroke="none"
       id="g2364"
       transform="matrix(25.399999,0,0,-25.399999,-103.93884,167.55)"
       >
      <g
         transform="rotate(180,3.9375,0.375)"
         id="g2362"
         >
        <path
           class="fill"
           d="M 0,0.0625 C 0.0345178,0.0625 0.0625,0.0345178 0.0625,0 0.0625,-0.0345178 0.0345178,-0.0625 0,-0.0625 c -0.0345178,0 -0.0625,0.0279822 -0.0625,0.0625 0,0.0345178 0.0279822,0.0625 0.0625,0.0625"
           id="path2360"
            />
      </g>
    </g>
  </g>
</svg>
