<?xml version="1.0" encoding="UTF-8" standalone="no"?>

<svg
   width="25.399986mm"
   height="25.4mm"
   viewBox="0 0 25.399986 25.4"
   version="1.1"
   id="svg2624"
   xmlns="http://www.w3.org/2000/svg">
     id="namedview2626"
     pagecolor="#ffffff"
     bordercolor="#000000"
     borderopacity="0.25"
     showgrid="false"
  <defs
     id="defs2621" />
  <g
     id="layer1"
     transform="translate(-92.382633,-135.79999)">
    <g
       stroke="none"
       id="g2262"
       transform="matrix(25.399999,0,0,-25.399999,54.282634,167.55)"
       >
      <g
         transform="translate(2,0.75)"
         id="g2260"
         >
        <path
           class="fill"
           d="m 0,0.125 c 0,0 -0.125,-0.25 -0.125,-0.25 0,0 0.25,0 0.25,0 0,0 -0.125,0.25 -0.125,0.25"
           id="path2258"
            />
      </g>
    </g>
    <g
       stroke="none"
       id="g2268"
       transform="matrix(25.399999,0,0,-25.399999,54.811801,168.07917)"
       >
      <g
         transform="rotate(90,0.5,1.125)"
         id="g2266"
         >
        <path
           class="fill"
           d="M 0,0.0625 C 0.0345178,0.0625 0.0625,0.0345178 0.0625,0 0.0625,-0.0345178 0.0345178,-0.0625 0,-0.0625 c -0.0345178,0 -0.0625,0.0279822 -0.0625,0.0625 0,0.0345178 0.0279822,0.0625 0.0625,0.0625"
           id="path2264"
            />
      </g>
    </g>
    <g
       stroke="none"
       id="g2274"
       transform="matrix(25.399999,0,0,-25.399999,54.811801,167.02083)"
       >
      <g
         transform="rotate(90,0.375,1.25)"
         id="g2272"
         >
        <path
           class="fill"
           d="M 0,0.0625 C 0.0345178,0.0625 0.0625,0.0345178 0.0625,0 0.0625,-0.0345178 0.0345178,-0.0625 0,-0.0625 c -0.0345178,0 -0.0625,0.0279822 -0.0625,0.0625 0,0.0345178 0.0279822,0.0625 0.0625,0.0625"
           id="path2270"
            />
      </g>
    </g>
  </g>
</svg>
